<svg xmlns="http://www.w3.org/2000/svg" viewBox="0 0 400 400" width="100%" height="100%">
  <defs>
    <linearGradient id="border_light_caentech" x1="0%" y1="0%" x2="100%" y2="100%">
      <stop offset="0%" stop-color="#D97706" stop-opacity="0.5"/>
      <stop offset="100%" stop-color="#E2E8F0" stop-opacity="0.8"/>
    </linearGradient>
  </defs>
  <rect x="16" y="16" width="368" height="368" rx="68" fill="#FFFFFF" stroke="url(#border_light_caentech)" stroke-width="6"/>
  
  <!-- Dual Wing Cecep Azhar Crest Geometry (Top Watermark / Wings) -->
  <g opacity="0.45" transform="translate(140, 50) scale(0.09)">
    <path fill-rule="evenodd" clip-rule="evenodd" d="M581 0L0 301V644L581 945V546L421 473L581 399V0ZM529 86L52 332V613L529 859V574L308 473L529 371V86Z" fill="#D97706"/>
    <path fill-rule="evenodd" clip-rule="evenodd" d="M753 0L1334 301V644L753 945V546L913 473L753 399V0ZM805 86L1282 332V613L805 859V574L1026 473L805 371V86Z" fill="#D97706"/>
  </g>

  <g>
    
          <circle cx="200" cy="256" r="65" fill="none" stroke="#D97706" stroke-width="22"/>
          <path d="M200 195 V256 L240 275" fill="none" stroke="#EDEDED" stroke-width="20" stroke-linecap="round"/>
        
  </g>
</svg>